<?xml version="1.0" encoding="iso-8859-1"?>
<!-- Generator: Adobe Illustrator 16.0.0, SVG Export Plug-In . SVG Version: 6.00 Build 0)  -->
<!DOCTYPE svg PUBLIC "-//W3C//DTD SVG 1.1//EN" "http://www.w3.org/Graphics/SVG/1.1/DTD/svg11.dtd">
<svg version="1.1" id="Capa_1" xmlns="http://www.w3.org/2000/svg" xmlns:xlink="http://www.w3.org/1999/xlink" x="0px" y="0px"
	 width="612px" height="612px" viewBox="0 0 612 612" style="enable-background:new 0 0 612 612;" xml:space="preserve">
<g>
	<g>
		<path d="M612,165.429c0-70.574-57.414-127.995-127.995-127.995c-20.256,0-40.424,4.859-58.336,14.043
			c-14.494,7.436-27.591,17.724-38.318,30.049c-24.907-5.429-52.543-8.175-82.297-8.175c-29.121,0-56.223,2.633-80.705,7.831
			c-10.733-12.244-23.811-22.463-38.268-29.836c-18.1-9.229-37.641-13.912-58.085-13.912C57.421,37.435,0,94.855,0,165.429
			c0,22.896,6.125,45.372,17.705,64.988c9.354,15.849,22.056,29.516,37.096,40.023c-3.511,16.877-6.809,44.664-8.432,64.029
			c-1.605,19.189-2.282,36.67-1.95,50.537c0.451,18.871,2.646,31.371,6.902,39.346c33.353,62.406,88.391,80.887,108.334,85.689
			c7.749,13.285,18.526,24.764,32.124,34.199c12.52,8.684,27.491,15.668,44.5,20.758c28.858,8.633,55.728,9.566,65.941,9.566
			c0.815,0,1.492-0.928,2.019-0.934c0.589,0.006,1.172-0.908,1.762-0.908c0.145,0,0.295,0,0.439,0c0.068,0,0.137,0,0.206,0
			c0.044,0,0.044,0,0.025,0c0.401,0,1.441,0,4.031,0v0.922c6.27,0,35.673-0.471,64.53-9.104
			c17.009-5.092,31.277-11.844,43.798-20.525c13.598-9.436,24.03-20.803,31.779-34.088c19.942-4.801,74.806-23.227,108.158-85.633
			c2.539-4.746,10.169-19.164,4.909-88.246c-1.398-18.332-4.521-47.096-8.101-64.612C590.74,247.746,612,208.092,612,165.429z
			 M291.894,545.438c-31.347-2.088-56.725-10.602-77.715-24.512c-22.532-14.934-34.995-34.199-34.995-54.236
			s12.388-39.303,34.92-54.236c16.909-11.203,37.804-18.908,60.7-22.576c-8.025,2.477-15.46,5.906-21.98,10.225
			c-15.986,10.596-25.159,25.881-25.159,41.936c0,16.057,9.266,31.342,25.259,41.936c10.896,7.223,26.432,11.988,38.97,13.881
			V545.438z M306,470.169c-29.303,0-49.722-14.826-49.722-28.131c0-13.303,20.419-28.129,49.722-28.129s49.722,14.826,49.722,28.129
			C355.722,455.343,335.303,470.169,306,470.169z M399.388,520.927c-20.989,13.91-51.069,22.424-76.147,24.512v-47.584
			c12.539-1.893,26.507-6.658,37.409-13.881c15.987-10.594,24.426-25.879,24.426-41.936c0-16.055-9.536-31.34-25.522-41.936
			c-6.514-4.318-14.131-7.748-22.156-10.225c22.896,3.668,43.71,11.373,60.618,22.576c22.532,14.934,35.636,34.199,35.636,54.236
			C433.644,486.728,421.92,505.993,399.388,520.927z M532.254,252.322l-11.623,6.47l5.529,11.905
			c1.806,4.872,6.508,32.62,9.203,69.114c3.479,47.008,0.333,67.031-1.817,71.051c-13.956,26.111-33.999,46.191-59.578,59.684
			c-4.658,2.457-9.084,4.457-13.134,6.088c0.42-3.285,0.646-6.602,0.646-9.949c0-15.404-4.489-30.25-13.341-44.119
			c-8.194-12.838-19.768-24.268-34.412-33.967C384.743,369.39,346.487,358.813,306,358.813s-78.749,10.576-107.732,29.785
			c-14.639,9.705-26.218,21.135-34.412,33.967c-8.853,13.875-13.341,28.715-13.341,44.119c0,3.623,0.257,7.215,0.752,10.77
			c-20.732-7.986-53.176-26.299-74.711-66.6c-2.477-4.633-5.649-25.045-1.818-72.172c2.872-35.403,7.812-63.815,9.604-68.844
			l5.499-11.686l-11.41-6.576C63.552,243,51.07,230.643,42.343,215.854c-8.984-15.216-13.73-32.657-13.73-50.443
			c0-54.8,44.581-99.381,99.381-99.381c15.88,0,31.052,3.63,45.083,10.79c13.397,6.833,25.278,16.82,34.356,28.876l5.667,7.529
			l9.16-2.238c24.532-5.994,52.386-9.034,82.792-9.034c31.027,0,59.389,3.166,84.304,9.41l9.247,2.319l5.698-7.642
			c9.072-12.15,20.972-22.225,34.426-29.121c14.087-7.222,29.321-10.89,45.276-10.89c54.801,0,99.382,44.581,99.382,99.381
			C583.387,201.472,563.795,234.768,532.254,252.322z"/>
		<path d="M436.985,261.751c-8.646-6.169-19.755-9.567-31.277-9.567c-2.396,0-4.821,0.144-7.223,0.433
			c-12.827,1.542-24.538,7.059-32.971,15.542c-9.19,9.241-13.642,21.36-12.213,33.24c1.311,10.909,7.336,20.702,16.953,27.559
			c8.645,6.17,19.754,9.568,31.277,9.568c2.395,0,4.821-0.145,7.216-0.434c12.827-1.541,24.538-7.059,32.971-15.541
			c9.19-9.242,13.642-21.36,12.213-33.24C452.627,278.403,446.608,268.617,436.985,261.751z M421.431,302.383
			c-3.855,3.88-9.717,6.545-16.087,7.309c-1.267,0.15-2.552,0.232-3.806,0.232c-10.312,0-19.015-5.241-19.823-11.924
			c-0.514-4.294,2.345-7.893,4.094-9.655c3.855-3.881,9.718-6.539,16.087-7.31c1.272-0.15,2.552-0.232,3.806-0.232
			c10.313,0,19.015,5.241,19.817,11.924C426.045,297.029,423.187,300.622,421.431,302.383z"/>
		<path d="M212.869,252.624c-2.401-0.289-4.828-0.433-7.222-0.433c-11.523,0-22.632,3.398-31.278,9.567
			c-9.624,6.865-15.642,16.651-16.953,27.566c-1.429,11.88,3.022,23.999,12.213,33.239c8.432,8.482,20.144,14,32.97,15.543
			c2.395,0.287,4.828,0.432,7.223,0.432l0,0c11.523,0,22.626-3.398,31.277-9.566c9.624-6.865,15.642-16.652,16.953-27.566
			c1.429-11.887-3.022-23.999-12.213-33.24C237.407,259.683,225.696,254.166,212.869,252.624z M209.816,309.919
			c-1.26,0-2.539-0.076-3.806-0.232c-6.37-0.764-12.231-3.43-16.087-7.31c-1.749-1.762-4.608-5.354-4.094-9.648
			c0.802-6.689,9.51-11.924,19.817-11.924c1.253,0,2.539,0.075,3.805,0.232c6.37,0.765,12.231,3.429,16.093,7.31
			c1.75,1.762,4.608,5.354,4.094,9.648C228.831,304.684,220.129,309.919,209.816,309.919z"/>
		<path d="M123.017,108.272c-28.262,0-51.17,22.908-51.17,51.17c0,21.153,12.839,39.309,31.146,47.102
			c17.742-24.281,41.202-49.139,66.63-68.21C161.586,120.604,143.75,108.272,123.017,108.272z"/>
		<path d="M488.983,108.272c-20.733,0-38.569,12.332-46.612,30.062c25.428,19.078,48.888,43.936,66.63,68.21
			c18.307-7.793,31.146-25.949,31.146-47.102C540.153,131.18,517.245,108.272,488.983,108.272z"/>
	</g>
</g>
<g>
</g>
<g>
</g>
<g>
</g>
<g>
</g>
<g>
</g>
<g>
</g>
<g>
</g>
<g>
</g>
<g>
</g>
<g>
</g>
<g>
</g>
<g>
</g>
<g>
</g>
<g>
</g>
<g>
</g>
</svg>
